<?xml version="1.0" encoding="utf-8"?>
<!-- Generator: Adobe Illustrator 27.7.0, SVG Export Plug-In . SVG Version: 6.00 Build 0)  -->
<svg version="1.1" id="Layer_1" xmlns="http://www.w3.org/2000/svg" xmlns:xlink="http://www.w3.org/1999/xlink" x="0px" y="0px"
	 viewBox="0 0 885 380" style="enable-background:new 0 0 885 380;" xml:space="preserve">
<style type="text/css">
	.st0{fill:#FFFFFF;stroke:#000000;stroke-width:2.3689;stroke-linecap:round;stroke-linejoin:round;stroke-miterlimit:10;}
	.st1{fill:none;stroke:#000000;stroke-width:2.3689;stroke-linecap:round;stroke-linejoin:round;stroke-miterlimit:10;}
	.st2{fill:#FFFFFF;}
	.st3{fill:#FF4E00;}
	.st4{font-family:'Depot-Bold';}
	.st5{font-size:173.8379px;}
	.st6{font-size:140.5666px;}
</style>
<g>
	<g>
		<g>
			<g>
				<path class="st0" d="M91.97,213.11c0,0-41.4,11.86-53.47-66.56c0,0-2.41-4.52-5.13,0c0,0-32.07,55.2,35.84,91.99
					C69.21,238.55,74.86,217.54,91.97,213.11z"/>
				<path class="st0" d="M112.25,164.65c0,0-45.21-68.11-26.73-145.24c0.25-1.05,0.92-3.77,3.57-3.76
					c7.42,0.04,29.69,5.8,67.32,77.21C156.41,92.86,126.6,109.21,112.25,164.65z"/>
				<path class="st0" d="M112.25,164.65c0,0,22.18-79.41,63.34-76.62c0,0,84.45,0.01,100.14,76.62c0,0,24.85,101.95-24.73,96.52
					C251,261.17,148.45,246.69,112.25,164.65z"/>
				<path class="st0" d="M217.58,96.73c0,0,27.14-56.51,58.78-75.8c4.05-2.28,5.78-1.01,6.31,1.45
					c2.72,13.86,8.22,59.04-23.05,105.34C259.62,127.72,250.52,110.24,217.58,96.73z"/>
				<path class="st0" d="M134.99,200.14c0,0-19.51-3.9-53.9,17.08c0,0-14.36,6.69-24.93,47.16c0,0-19.3,60.72-12.06,72.39
					c0,0-9.05,1.81-5.43,11.66c0,0,9.25,6.43,10.46-4.02c0,0-3.82,9.85,6.23,11.26c0,0,8.45-2.82,2.61-11.06
					c0,0,6.43,11.26,11.46,3.02c0,0,1.81-10.76-8.45-9.7c0,0,8-23.88,25.42-36.75c0,0,7.16,3.22,16.61,2.61
					c0,0,7.04,22.12,14.28,28.15c0,0-5.03,6.03-0.6,10.46c0,0,7.24,1.81,7.24-4.02c0,0-0.6,3.02,2.41,6.03c0,0-3.42,5.43,2.61,8.04
					c0,0,5.45,1.41,6.04-5.23c0,0-1.02,7.64,4.81,8.45c0,0,7.84,1.61,5.23-9.25c0,0,4.42,5.63,12.87,3.42c0,0,7.44-9.25-14.68-14.68
					c0,0,8.85-20.51,7.84-32.57c0,0,47.38,8.97,52.34-55.34C203.41,247.25,157.72,228.8,134.99,200.14z"/>
				<path class="st0" d="M171.81,300.49c0,0,4.69,27.18,7.4,32.01c0,0,0.45,9.35,7.69,12.06c0,0,6.64,1.51,3.47-6.18
					c0,0,6.18,8.75,9.05,3.77c0,0,3.77-5.13-5.28-7.84c0,0,9.8,6.79,10.71,0.6c0,0,1.51-9.65-9.8-9.65c0,0,15.33-23.43,6.86-66.27
					C201.9,258.99,199.6,291.15,171.81,300.49z"/>
				<path class="st1" d="M109.84,269.01c0,0,9.14,55.19,24.73,67.96c0,0-3.42,1.21-8.24,7.44"/>
				<path class="st1" d="M70.83,294.95c0,0,25.15,14.38,46.56,6.89"/>
				<path class="st1" d="M147.54,260.11c0,0,5.64,33.52,3.35,48.58"/>
			</g>
			<path d="M156.41,92.86c0,0,56.26,18.6,48.5,106.99c0,0-1.18,19.4-22.81,37.04c0,0-47.27-21.39-69.85-72.25
				C112.25,164.65,125.81,113.45,156.41,92.86z"/>
			<path d="M281.69,223.44c0,0-31.04-10.15-44.56-22.13c0,0-9.77-10.33-16.27-1.45c-0.32,0.44-0.93,2.05-0.42,4.97
				c1.93,11,9.53,44.8,34.97,56.55C255.41,261.38,279.09,264.78,281.69,223.44z"/>
			<path class="st0" d="M103.02,87.01c0,0,0.5,35.87,19.15,50.96"/>
			<circle class="st2" cx="145.42" cy="150" r="6.61"/>
		</g>
		<path class="st0" d="M232.17,103.74c0,0,1.91-24.62,16.96-35.9"/>
	</g>
	<g>
		<g>
			<text transform="matrix(1 0 0 1 293.9536 222.7847)" class="st3 st4 st5">Butters</text>
		</g>
		<text transform="matrix(1 0 0 1 447.8853 339.7632)" class="st4 st6">Studio</text>
	</g>
	<g>
		<g>
			<g>
				<circle class="st3" cx="383.37" cy="260.18" r="14.87"/>
			</g>
			<g>
				<circle class="st3" cx="348.81" cy="305.1" r="14.87"/>
			</g>
			<circle cx="412.68" cy="303.03" r="8.67"/>
			<circle cx="319.36" cy="268.47" r="8.67"/>
		</g>
	</g>
</g>
</svg>
