<?xml version="1.0" encoding="utf-8"?>
<!-- Generator: Adobe Illustrator 27.4.1, SVG Export Plug-In . SVG Version: 6.00 Build 0)  -->
<svg version="1.1" id="Layer_1" xmlns="http://www.w3.org/2000/svg" xmlns:xlink="http://www.w3.org/1999/xlink" x="0px" y="0px"
	 viewBox="0 0 49 22" style="enable-background:new 0 0 49 22;" xml:space="preserve">
<style type="text/css">
	.st0{fill:#FFFFFF;stroke:#000000;stroke-width:0.1268;stroke-linecap:round;stroke-linejoin:round;stroke-miterlimit:10;}
	.st1{fill:none;stroke:#000000;stroke-width:0.1268;stroke-linecap:round;stroke-linejoin:round;stroke-miterlimit:10;}
	.st2{fill:#FFFFFF;}
	.st3{fill:#FF4E00;}
	.st4{font-family:'Depot-Bold';}
	.st5{font-size:9.3062px;}
	.st6{font-size:7.525px;}
</style>
<g>
	<g>
		<g>
			<g>
				<path class="st0" d="M5.54,12.09c0,0-2.22,0.64-2.86-3.56c0,0-0.13-0.24-0.27,0c0,0-1.72,2.95,1.92,4.92
					C4.32,13.45,4.63,12.32,5.54,12.09z"/>
				<path class="st0" d="M6.63,9.49c0,0-2.42-3.65-1.43-7.78c0.01-0.06,0.05-0.2,0.19-0.2c0.4,0,1.59,0.31,3.6,4.13
					C8.99,5.65,7.4,6.52,6.63,9.49z"/>
				<path class="st0" d="M6.63,9.49c0,0,1.19-4.25,3.39-4.1c0,0,4.52,0,5.36,4.1c0,0,1.33,5.46-1.32,5.17
					C14.06,14.66,8.57,13.88,6.63,9.49z"/>
				<path class="st0" d="M12.27,5.86c0,0,1.45-3.03,3.15-4.06c0.22-0.12,0.31-0.05,0.34,0.08c0.15,0.74,0.44,3.16-1.23,5.64
					C14.52,7.52,14.03,6.58,12.27,5.86z"/>
				<path class="st0" d="M7.85,11.39c0,0-1.04-0.21-2.89,0.91c0,0-0.77,0.36-1.33,2.52c0,0-1.03,3.25-0.65,3.88
					c0,0-0.48,0.1-0.29,0.62c0,0,0.5,0.34,0.56-0.22c0,0-0.2,0.53,0.33,0.6c0,0,0.45-0.15,0.14-0.59c0,0,0.34,0.6,0.61,0.16
					c0,0,0.1-0.58-0.45-0.52c0,0,0.43-1.28,1.36-1.97c0,0,0.38,0.17,0.89,0.14c0,0,0.38,1.18,0.76,1.51c0,0-0.27,0.32-0.03,0.56
					c0,0,0.39,0.1,0.39-0.22c0,0-0.03,0.16,0.13,0.32c0,0-0.18,0.29,0.14,0.43c0,0,0.29,0.08,0.32-0.28c0,0-0.05,0.41,0.26,0.45
					c0,0,0.42,0.09,0.28-0.5c0,0,0.24,0.3,0.69,0.18c0,0,0.4-0.5-0.79-0.79c0,0,0.47-1.1,0.42-1.74c0,0,2.54,0.48,2.8-2.96
					C11.51,13.91,9.06,12.93,7.85,11.39z"/>
				<path class="st0" d="M9.82,16.76c0,0,0.25,1.46,0.4,1.71c0,0,0.02,0.5,0.41,0.65c0,0,0.36,0.08,0.19-0.33
					c0,0,0.33,0.47,0.48,0.2c0,0,0.2-0.27-0.28-0.42c0,0,0.52,0.36,0.57,0.03c0,0,0.08-0.52-0.52-0.52c0,0,0.82-1.25,0.37-3.55
					C11.43,14.54,11.3,16.26,9.82,16.76z"/>
				<path class="st1" d="M6.5,15.08c0,0,0.49,2.95,1.32,3.64c0,0-0.18,0.06-0.44,0.4"/>
				<path class="st1" d="M4.41,16.47c0,0,1.35,0.77,2.49,0.37"/>
				<path class="st1" d="M8.52,14.6c0,0,0.3,1.79,0.18,2.6"/>
			</g>
			<path d="M8.99,5.65c0,0,3.01,1,2.6,5.73c0,0-0.06,1.04-1.22,1.98c0,0-2.53-1.15-3.74-3.87C6.63,9.49,7.35,6.75,8.99,5.65z"/>
			<path d="M15.7,12.64c0,0-1.66-0.54-2.39-1.18c0,0-0.52-0.55-0.87-0.08c-0.02,0.02-0.05,0.11-0.02,0.27
				c0.1,0.59,0.51,2.4,1.87,3.03C14.29,14.67,15.56,14.85,15.7,12.64z"/>
			<path class="st0" d="M6.13,5.34c0,0,0.03,1.92,1.02,2.73"/>
			<circle class="st2" cx="8.4" cy="8.71" r="0.35"/>
		</g>
		<path class="st0" d="M13.05,6.23c0,0,0.1-1.32,0.91-1.92"/>
	</g>
	<g>
		<g>
			<text transform="matrix(1 0 0 1 16.355 12.6047)" class="st3 st4 st5">Butters</text>
		</g>
		<text transform="matrix(1 0 0 1 24.5957 18.8664)" class="st4 st6">Studio</text>
	</g>
	<g>
		<g>
			<g>
				<circle class="st3" cx="21.14" cy="14.61" r="0.8"/>
			</g>
			<g>
				<circle class="st3" cx="19.29" cy="17.01" r="0.8"/>
			</g>
			<circle cx="22.71" cy="16.9" r="0.46"/>
			<circle cx="17.72" cy="15.05" r="0.46"/>
		</g>
	</g>
</g>
</svg>
